<?xml version="1.0" encoding="UTF-8"?>
<svg width="512pt" height="512pt" version="1.1" viewBox="0 0 512 512" xmlns="http://www.w3.org/2000/svg">
 <path d="m494.97 209.91c-0.09375-0.21484-0.24609-0.39453-0.46094-0.51172-11.059-6.2461-22.789-9.4141-34.863-9.4141-15.871 0-31.84 5.5898-47.453 16.609-1.2695 0.89062-2.75 1.3633-4.2891 1.3633-2.4258 0-4.6992-1.1758-6.0938-3.1523-2.3672-3.3555-1.5664-8.0078 1.7969-10.379 18.703-13.203 35.969-19.621 52.773-19.621 8.2109 0 16.559 1.5312 25.539 4.6953 0.42578 0.14844 0.90234 0.011719 1.1758-0.34375 0.29297-0.35938 7.0078-9.1094 3.3906-30.402-1.6016-7.6484-4.543-13.895-8.6992-18.508-8.3828-10.633-16.879-12.867-22.539-12.867-3.5117 0-5.7344 0.875-5.832 0.91016-0.20312 0.082032-0.37891 0.22656-0.49609 0.41797-8.1289 12.785-17.566 21.371-34.805 31.688-1.1641 0.69141-2.4766 1.0547-3.8203 1.0547-2.6094 0-5.0547-1.3867-6.3945-3.625-2.1094-3.5234-0.95703-8.1055 2.5664-10.215 20.809-12.453 29.082-20.641 34.09-33.785 2.5273-9.2773-0.58984-21.789-7.2305-29.062l-1.332-1.6328c-7.5508-9.293-21.586-26.594-57.066-35.68-4.9258-1.5664-9.9531-2.3594-14.949-2.3594-14.457 0-23.891 6.5078-24.285 6.7852-0.39062 0.26953-0.54687 0.76953-0.39844 1.2148 1.4062 4.1367 5.6992 16.723 1.332 30.812-0.96875 3.1367-3.8359 5.2422-7.1133 5.2422-0.74609 0-1.4883-0.10938-2.2109-0.33203-3.918-1.2188-6.1172-5.3945-4.8984-9.3203 2.8945-9.332 2.2734-17.578-1.8906-25.191-5.4414-9.9648-12.988-16.672-23.023-20.496-9.5781-4.0742-24.762-4.9805-30.883-5.1797-39.449 0.21484-67.574 2.7539-103.17 15.488-4.5586 1.4844-8.1094 4.4688-10.008 8.3984-2.2422 4.6484-2.1914 10.445 0.16016 16.758 0.03125 0.078125 0.11328 0.33203 0.25781 0.74219 2.7539 8.0586 5.4492 15.289 8.0078 21.5 0.75781 1.8398 0.75781 3.8594-0.003906 5.6992-0.76172 1.832-2.1953 3.2656-4.0352 4.0234-0.91016 0.375-1.8633 0.5625-2.8359 0.5625-3.0039 0-5.707-1.8125-6.8906-4.6133-2.1367-5.0938-8.7852-21.762-8.8477-21.914-0.12109-0.32812-3.207-8.0586-13.133-8.0586-7.4531 0-16.707 4.4375-27.473 13.184-14.32 11.094-21.633 21.145-21.734 29.863-0.070312 6.1484 3.5977 9.1953 3.8555 9.3945 2.9531 1.8828 19.004 14.121 25.711 21.59 2.8047 3.1172 2.7148 7.7578-0.21094 10.551-1.3945 1.332-3.2188 2.0625-5.1445 2.0625-2.0547 0-3.9609-0.82031-5.3828-2.3008-16.648-17.395-30.301-25.855-41.738-25.855-1.6094 0-3.1836 0.17578-4.6914 0.51562-4.4375 1.0195-11.637 6.1328-15.969 12.871-15.273 19.844-20.262 35.414-21.668 62.059-0.85156 15.949 3.457 31.512 8.2891 38.277 6.793 9.5039 13.664 14.883 16.27 16.77 0 0 2.0938 1.332 2.8945 0.70703 6.8008-5.3398 14.586-8.1445 24.145-8.1445 5.7188 0 12.188 0.96094 19.219 2.8672 1.8633 0.50781 3.4219 1.7266 4.3789 3.4336 0.98438 1.75 1.2227 3.8672 0.65625 5.7969-0.92188 3.1523-3.8555 5.3555-7.1484 5.3555-0.70703 0-1.4062-0.10938-2.0898-0.30078-4.9141-1.4336-9.5039-2.043-13.629-2.1641-4.0664-0.10938-11.48 0.27734-14.836 4.0703-0.15234 0.17578-0.29297 0.34766-0.34375 0.56641-0.046875 0.21094-0.83984 18.336 24.961 27.582 21.668 7.7617 32.934 8.0195 80.02 8.0195 6.9414 0 14.582-0.070313 24.027-0.23047 2.3789-0.066406 5.7539-1.2383 7.9062-3.7344 1.6367-1.8945 2.3398-4.2695 2.0273-6.7539-0.027343-4 0.59375-7.6484 1.9648-11.488 5.6406-15.812 17.004-26.133 36.844-33.488 0.83984-0.3125 1.7031-0.47266 2.5898-0.47266 3.0977 0 5.8984 1.957 6.9805 4.8633 0.69141 1.8633 0.62109 3.8867-0.21484 5.6953-0.82812 1.8125-2.3086 3.1836-4.1719 3.8828-15.172 5.625-24.516 13.664-27.781 23.891-5.5039 17.254 7.2344 36.199 7.3867 36.352 37.914 37.156 111.57 38.215 115.28 27.902 3.1172-7.6562 5.2617-19.805-2.2578-34.238-11.781-22.602-51.746-24.004-52.152-24.023-4.1016-0.11328-7.3516-3.5469-7.2344-7.6406 0.10938-3.9922 3.457-7.2461 7.625-7.2461 2 0.054688 49.105 1.6016 64.961 32.027 8.6133 16.512 7.3984 31.207 4.8594 40.652-0.60938 2.5352-0.14844 5.0938 1.2305 6.8516 0.87891 1.1055 2.5234 2.4258 5.4414 2.4258 0 0 26.09 0.16797 47.41-4.2656 2.8828-0.59375 5.6328 1.5352 6.082 4.4297 0.44922 2.9023-1.543 5.625-4.4375 6.0781-31.289 4.8945-58.723 7.3438-82.535 7.3438-28.773 0-52.27-3.5781-70.926-10.742 0.31641 13.152 4.7891 24.621 12.914 34.008 0.050781 0.078125 0.097657 0.13281 0.14453 0.20312 2.707 2.8516 6.7695 6.8867 10.477 10.266 2.8359 2.5859 16.258 11.137 19.746 13.246 6.7383 3.9336 37.375 22.785 40.32 24.68 13.484 8.6875 17.48 18.121 17.898 18.684 1.4375 1.9062 2.1797 7.5586 2.1797 7.5586 1.2188 5.0703 5.7891 8.8359 11.238 8.8203 6.3633-0.015625 11.52-5.1914 11.5-11.562 0 0 0.17969-12.949-4.8672-21.82-0.80859-1.6445-11.434-19.051-23.695-28.508-3.7227-2.8711-12.504-9.293-12.504-9.293l-0.050781-0.027343c-1-0.67969-1.3125-2.0234-0.67188-3.0625 0.64844-1.0547 2.0391-1.3945 3.1094-0.74219 0 0 25.871 18.172 42.09 13.648 23.84-6.6406 55.039-22.316 55.039-57.594 0-5.2422-0.52344-10.172-1.5156-14.816 3.3086-1.7617 6.5938-3.7539 9.875-6.043 3.8516-3.082 4.9961-6.9023 5.2773-9.5625 0.39844-3.8086-0.70312-7.8438-2.8789-10.508l-15.707-20.23-0.18359-0.19922c-3.2734-4.1562-7.5508-5.0273-10.574-5.0273-2.5742 0-4.5938 0.62109-5.6719 1.0273-5.5195 2.7852-11.336 5.0703-17.258 6.7852-3.9023 1.1211-8.1133-1.25-9.2227-5.0898-0.54688-1.9102-0.32812-3.9219 0.62891-5.6641 0.96094-1.7422 2.5391-3 4.4531-3.5469 13.516-3.9062 37.902-14.688 49.465-43.02 1.1406-2.8164 3.8516-4.6328 6.9023-4.6328 0.96094 0 1.9062 0.18359 2.8008 0.55469 3.8047 1.5469 5.6406 5.9023 4.0859 9.707-3.707 9.0898-8.7852 17.316-15.188 24.598-2.918 4.7109-2.5391 9.5898 1.1992 14.961l10.262 13.332c0.13672 0.1875 0.32812 0.32422 0.54688 0.37891 0.16797 0.050781 4.1797 1.1836 9.9023 1.1836 7.7109 0 18.621-2.0938 26.789-12.098 19.957-23.863 20.93-44.512 21.633-59.59 0.078125-1.5 0.13672-2.9609 0.22656-4.5156-0.89062-11.047-7.9453-16.652-11.098-18.629zm-305.71-9.8906c-9.6016 9.4883-20.191 16.473-31.473 20.766-0.12891 0.046875-0.23437 0.11719-0.32812 0.21094-5.1914 2.8203-7.0039 6.7109-6.0352 12.988l4.2734 24.336c0.38281 1.9492-0.015625 3.9375-1.125 5.5859s-2.7891 2.7734-4.7461 3.1523c-4.0195 0.79297-7.9648-1.9141-8.7461-5.8672l-4.6602-26.266c-1.4219-5.5195-6.7227-8.4375-10.156-8.8281-0.13672-0.078125-0.30078-0.12109-0.47656-0.12891-37.012-1.3359-66.637-25.246-66.934-25.488-1.5352-1.2656-2.4922-3.0469-2.6914-5.0234-0.19531-1.9766 0.39453-3.918 1.6484-5.4531 1.418-1.7344 3.5234-2.7305 5.7656-2.7305 1.7031 0 3.3789 0.59375 4.707 1.6797 1.1211 0.91016 27.828 22.328 59.879 22.328 18.914 0 35.953-7.3594 50.641-21.855 2.8281-2.7969 7.7305-2.7695 10.527 0.066407 1.3984 1.4141 2.1602 3.293 2.1445 5.2773-0.007812 1.9883-0.79687 3.8516-2.2148 5.25zm9.8125-51.707c-23.27 0-39.914 14.398-40.617 15.008-1.3633 1.1914-3.1016 1.8516-4.9102 1.8516-2.1445 0-4.1875-0.92188-5.5977-2.5273-1.3125-1.4961-1.9648-3.4102-1.832-5.3945 0.12109-1.9805 1.0195-3.8008 2.5156-5.1094 10.195-8.9609 28.852-18.527 50.633-18.527 15.691 0 30.699 4.9766 44.605 14.797 1.6211 1.1484 2.7031 2.8555 3.043 4.8164 0.33984 1.957-0.10937 3.9336-1.2539 5.5547-1.3945 1.9766-3.6719 3.1523-6.0859 3.1523-1.543 0-3.0195-0.47266-4.2852-1.3672-11.52-8.1328-23.703-12.254-36.215-12.254zm172.3 105.54c-1.2812 1.5273-3.0781 2.457-5.0547 2.6328-32.066 2.8125-55.957-4.2539-70.488-20.891-2.2695-2.5898-4.3477-5.4922-6.168-8.6289-0.039063-0.078125-0.10156-0.14844-0.16016-0.21484-1.9297-1.9414-4.5703-2.9805-7.8594-3.0977-1.1641-0.039062-2.3906 0.03125-3.7578 0.22656-0.14844-0.03125-9.4219 2.0078-18.523 1.7031-20.52-0.67578-33.715-10.297-34.262-10.699-3.3086-2.4375-4.0078-7.1055-1.5703-10.414 1.4531-1.9805 3.8008-3.1133 6.2578-3.0195 1.4883 0.050781 2.9141 0.54297 4.125 1.4297 0.41406 0.29688 10.328 6.875 25.852 7.7969 7.5078 0.44531 14.867-1.9258 15.766-2.3047 5.7383-2.4102 5.5234-8.7773 5.2422-11.238-1.2188-14.391 1.332-25.871 1.4336-26.359 0.88672-3.9375 4.9258-6.5234 8.9023-5.6211 3.9883 0.90625 6.5195 4.8906 5.6211 8.8867-0.070313 0.32422-6.8516 32.195 10.375 51.824 11.25 12.816 30.852 18.164 57.922 15.785 4.1797-0.34766 7.7148 2.7227 8.0625 6.7695 0.16797 1.9766-0.43359 3.9062-1.7148 5.4336zm-5.8477-115.25c-13.332 12.785-19.902 33.121-16.719 51.82 0.625 3.6406-1.8398 7.1133-5.4727 7.7305-0.37891 0.066406-0.76172 0.097656-1.1406 0.097656-3.2734 0-6.1992-2.3203-6.5938-5.5742-2.4492-19.977 4.0195-38.422 4.0977-38.609 0.42969-1.0508 0.48828-1.9609 0.16016-2.707-0.39062-0.92188-1.2812-1.4297-1.9727-1.6992-19.988-2.2109-55.988-9.8203-72.703-35.91-2.5742-3.793-9.3125-1.8477-20.223-1.8633-49.02-0.082031-55.965-31.566-56.238-32.906-0.35156-1.75-0.003906-3.543 0.98438-5.0312 0.98828-1.4961 2.4922-2.5156 4.25-2.8672 0.44141-0.09375 0.89062-0.13672 1.3359-0.13672 3.1367 0 5.8945 2.2305 6.5547 5.3047 0.21094 0.90234 5.5859 22.223 43.227 22.223 1.8633 0 3.8047-0.050781 5.7656-0.16016 4.3281-0.52734 6.75-2.8047 7.3789-6.9531 0.62109-14.504 11.547-25.289 17.906-29.367 1.082-0.69531 2.3281-1.0664 3.6094-1.0664 2.3008 0 4.4102 1.1523 5.6523 3.082 0.96875 1.5039 1.2891 3.2969 0.90625 5.043-0.38281 1.75-1.4219 3.2461-2.9219 4.2148-0.69141 0.45703-16.922 11.305-10.047 27.32 12.379 28.848 54.488 34.969 72.012 36.262 2.2109-0.17578 4.7305-1.4961 6.8906-3.625 1.4805-1.7031 2.7656-3.0781 4.0391-4.2969 17.035-16.328 18.055-32.312 18.09-32.984 0.1875-3.6875 3.3398-6.5547 7-6.3633 3.6602 0.16406 6.5273 3.2734 6.3906 6.9258-0.039062 0.88281-1.0703 21.832-22.219 42.098z"/>
</svg>
