<?xml version="1.0" encoding="UTF-8"?>
<svg width="1200pt" height="1200pt" version="1.1" viewBox="0 0 1200 1200" xmlns="http://www.w3.org/2000/svg">
 <path d="m340.25 524.09h-0.023438c-18.801 0-36.82 7.2852-50.09 20.262-13.297 12.957-20.762 30.547-20.762 48.898v207.48c0 18.348 7.4648 35.938 20.762 48.895 13.27 12.98 31.289 20.266 50.09 20.266h377.86c18.797 0 36.816-7.2852 50.09-20.266 11.098-10.836 18.137-24.898 20.168-39.93l61.66 60.195c13.512 13.184 33.82 17.125 51.461 10.004 17.664-7.1484 29.164-23.953 29.164-42.602v-280.61c0-18.652-11.5-35.457-29.164-42.605-17.641-7.1211-37.949-3.1797-51.461 10.008l-61.66 60.191c-2.0312-15.031-9.0703-29.094-20.168-39.93-13.273-12.977-31.293-20.262-50.09-20.262h-0.023437c28.691-21.047 47.254-54.523 47.254-92.215 0-63.625-52.898-115.27-118.08-115.27s-118.08 51.641-118.08 115.27c0 37.691 18.562 71.168 47.258 92.215h-94.512c28.691-21.047 47.254-54.523 47.254-92.215 0-63.625-52.898-115.27-118.08-115.27-65.18 0-118.08 51.641-118.08 115.27 0 37.691 18.562 71.168 47.258 92.215z" fill-rule="evenodd"/>
</svg>
