<?xml version="1.0" encoding="UTF-8"?>
<svg width="512pt" height="512pt" version="1.1" viewBox="0 0 512 512" xmlns="http://www.w3.org/2000/svg">
 <path d="m112.64 399.36c5.1211 5.1211 11.777 7.6797 17.922 7.6797 6.1406 0 13.309-2.5586 17.918-7.6797l107.52-107.52 107.52 107.52c5.1211 5.1211 11.777 7.6797 17.922 7.6797 6.1445 0 13.312-2.5586 17.918-7.6797 10.238-10.238 10.238-26.113 0-36.352l-107.52-107.52 107.52-107.52c10.238-10.238 10.238-26.113 0-36.352-10.238-10.238-26.113-10.238-36.352 0l-107.52 107.52-107.01-106.5c-10.238-10.238-26.113-10.238-36.352 0-10.238 10.238-10.238 26.113 0 36.352l107.52 107.52-107.01 107.01c-10.242 9.7266-10.242 26.113 0 35.84z"/>
</svg>
