<?xml version="1.0" encoding="UTF-8"?>
<svg width="512pt" height="512pt" version="1.1" viewBox="0 0 512 512" xmlns="http://www.w3.org/2000/svg">
 <path d="m258.42 408.92c-0.71484 0.38281-1.5156 0.59766-2.3438 0.61328-0.97656-0.015625-1.7773-0.23047-2.4922-0.61328l-76.754-40.402c-1.6836-0.88672-2.7344-2.6328-2.7344-4.5312v-84.883c0-0.48047 0.0625-0.9375 0.17969-1.3672-0.58594-2.168 0.25781-4.668 2.5352-5.8789l76.785-40.859c1.5039-0.80078 3.3086-0.80078 4.8125 0l76.785 40.859c2.2773 1.2109 3.1211 3.7109 2.5352 5.8789 0.11719 0.42969 0.17969 0.88672 0.17969 1.3672v84.883c0 1.8984-1.0508 3.6445-2.7344 4.5312zm43.625-245.08c-8.4688 0-15.324-6.8594-15.324-15.32v-128.04h-186.03c-10.363 0-18.766 8.3906-18.766 18.777v423.24c0 10.371 8.4336 18.781 18.84 18.781h310.48c10.406 0 18.84-8.4648 18.84-18.832v-298.61zm-51.164 232.14-66.547-35.328-0.011719-72.945 66.559 35.055zm-60.586-119.7 65.707-35.641 65.945 35.707-65.945 35.039zm137.39 84.484-66.559 35.004-0.17578-73.234 66.734-35.105zm-76.801-176.43c0-2.8359 2.2734-5.1367 5.1211-5.1367 2.8281 0 5.1211 2.2422 5.1211 5.1367v25.57c0 2.8359-2.2734 5.1328-5.1211 5.1328-2.8281 0-5.1211-2.2422-5.1211-5.1328zm-93.887 186.28c2.457-1.418 5.582-0.59766 7.0078 1.8672 1.4141 2.4492 0.61719 5.5547-1.8867 7l-22.145 12.785c-2.457 1.418-5.5859 0.60156-7.0078-1.8672-1.4141-2.4492-0.61719-5.5547 1.8867-7zm198.02 0c-2.457-1.418-5.582-0.59766-7.0078 1.8672-1.4141 2.4492-0.61719 5.5547 1.8867 7l22.145 12.785c2.457 1.418 5.5859 0.60156 7.0078-1.8672 1.4141-2.4492 0.61719-5.5547-1.8867-7zm75.07-227.25h-112.61c-5.668 0-10.266-4.5938-10.266-10.266v-112.61z" fill-rule="evenodd"/>
</svg>
