<?xml version="1.0" encoding="UTF-8"?>
<svg width="512pt" height="512pt" version="1.1" viewBox="0 0 512 512" xmlns="http://www.w3.org/2000/svg">
 <path d="m100.69 20.48h186.03v128.04c0 8.4609 6.8555 15.32 15.324 15.32h128.04v142.3l-40.703-41.16-45.191 44.066-42.988-44.066-45.195 44.066-42.988-44.066-45.195 44.066-42.988-44.066-42.906 41.84v-267.57c0-10.387 8.4023-18.777 18.766-18.777zm-18.766 316.43v125.59c0 10.371 8.4336 18.781 18.84 18.781h310.48c10.406 0 18.84-8.4648 18.84-18.832v-125.54l-41.805-40.762-42.988 44.066-45.195-44.066-42.988 44.066-45.191-44.066-42.992 44.066-45.191-44.066zm235.54-193.55c-5.668 0-10.266-4.5938-10.266-10.266v-112.61l122.88 122.88z" fill-rule="evenodd"/>
</svg>
