<?xml version="1.0" encoding="UTF-8"?>
<svg width="512pt" height="512pt" version="1.1" viewBox="0 0 512 512" xmlns="http://www.w3.org/2000/svg">
 <path d="m302.04 163.84c-8.4688 0-15.324-6.8594-15.324-15.32v-128.04h-186.03c-10.363 0-18.766 8.3906-18.766 18.777v423.24c0 10.371 8.4336 18.781 18.84 18.781h310.48c10.406 0 18.84-8.4648 18.84-18.832v-298.61zm-153.56 224.82 48.086-70.777 24.867 36.602 59.953-88.246 83.402 122.76zm35.84-122.42c11.309 0 20.48-9.168 20.48-20.477 0-11.312-9.1719-20.48-20.48-20.48-11.312 0-20.48 9.168-20.48 20.48 0 11.309 9.168 20.477 20.48 20.477zm245.76-122.88h-112.61c-5.668 0-10.266-4.5938-10.266-10.266v-112.61z" fill-rule="evenodd"/>
</svg>
