<?xml version="1.0" encoding="UTF-8"?>
<svg width="512pt" height="512pt" version="1.1" viewBox="0 0 512 512" xmlns="http://www.w3.org/2000/svg">
 <path d="m302.04 163.84c-8.4688 0-15.324-6.8594-15.324-15.32v-128.04h-186.03c-10.363 0-18.766 8.3906-18.766 18.777v423.24c0 10.371 8.4336 18.781 18.84 18.781h310.48c10.406 0 18.84-8.4648 18.84-18.832v-298.61zm-114.43 73.023c-1.9922 0.89062-3.8203 2.2148-5.4375 3.9375-1.6172 1.7148-2.9609 3.8789-4 6.4219-1.043 2.5469-1.5703 5.5195-1.5703 8.8359v27.953c0 2.6016-0.35547 5.0391-1.0547 7.2461-0.69922 2.1953-1.6367 4.0938-2.7852 5.6367-1.1367 1.5352-2.4648 2.7383-3.9453 3.5742-1.4648 0.83203-3 1.25-4.5625 1.25h-0.41406v11.273h0.41406c1.5625 0 3.1016 0.39844 4.5742 1.1836 1.4766 0.78906 2.8047 1.9375 3.9375 3.4141 1.1445 1.4961 2.0781 3.3633 2.7812 5.5586 0.69922 2.207 1.0547 4.6953 1.0547 7.3984v27.797c0 3.3164 0.52734 6.2891 1.5664 8.8359 1.0391 2.5469 2.3867 4.707 4.0039 6.4258s3.4453 3.043 5.4375 3.9336c1.9961 0.89063 4.0195 1.3398 6.0117 1.3398h11.18v-10.047h-8.1055c-1.4297 0-2.582-0.35156-3.4219-1.0547-0.87109-0.72266-1.582-1.707-2.1172-2.918-0.54688-1.2422-0.92188-2.6484-1.1211-4.1875-0.20312-1.5508-0.30469-3.1094-0.30469-4.6328v-27.949c0-3.9258-0.55469-7.2383-1.6445-9.8398-1.0898-2.5898-2.3828-4.7227-3.8438-6.3359-1.4688-1.6211-2.9844-2.8164-4.5117-3.5508-1.1484-0.55469-2.1211-0.92578-2.9453-1.125 0.83203-0.27734 1.8242-0.73438 2.9688-1.3672 1.5195-0.83594 3.0312-2.1055 4.4922-3.7734 1.4609-1.6641 2.75-3.793 3.8398-6.332 1.0938-2.5469 1.6445-5.6758 1.6445-9.3008v-28.105c0-1.625 0.10547-3.2344 0.30469-4.7852 0.19922-1.5391 0.57422-2.918 1.1211-4.1055 0.53125-1.1641 1.2422-2.1211 2.1172-2.8477 0.83984-0.69922 1.9922-1.0547 3.4219-1.0547h8.1055v-10.047h-11.18c-1.9922 0.003907-4.0156 0.45703-6.0117 1.3438zm160.13 64.855c-1.5664 0-3.1055-0.39844-4.5703-1.1797-1.4805-0.78516-2.8047-1.9609-3.9375-3.4883-1.1445-1.543-2.082-3.4414-2.7812-5.6406-0.70312-2.1953-1.0547-4.6875-1.0547-7.3984v-27.953c0-3.3086-0.52734-6.2812-1.5703-8.8359-1.0391-2.543-2.3867-4.7031-4-6.4219-1.6211-1.7227-3.4492-3.0469-5.4414-3.9375-1.9922-0.88672-4.0156-1.3398-6.0078-1.3398h-11.18v10.047h8.1055c1.4297 0 2.5781 0.35547 3.4219 1.0547 0.86719 0.72266 1.5781 1.7031 2.1133 2.918 0.54688 1.2383 0.92188 2.6484 1.125 4.1875 0.19922 1.5742 0.30078 3.2344 0.30078 4.9375v27.801c0 3.9297 0.55469 7.2383 1.6484 9.8359 1.0898 2.5977 2.3828 4.7305 3.8398 6.3398 1.4648 1.6211 2.9805 2.8164 4.5117 3.5508 1.1289 0.54688 2.1211 0.92188 2.9492 1.1211-0.83203 0.28125-1.8281 0.73828-2.9688 1.3672-1.5234 0.83984-3.0352 2.1094-4.4961 3.7773-1.4531 1.6602-2.7461 3.7891-3.832 6.3281-1.0938 2.5508-1.6484 5.6797-1.6484 9.3008v27.953c0 1.6055-0.10156 3.2109-0.30469 4.7852-0.19922 1.5391-0.57422 2.9219-1.1172 4.1055-0.53906 1.168-1.25 2.125-2.1211 2.8477-0.83984 0.70312-1.9922 1.0586-3.4219 1.0586h-8.1016v10.043h11.176c1.9922 0 4.0156-0.44922 6.0117-1.3438 1.9883-0.88672 3.8203-2.2109 5.4375-3.9297 1.6172-1.7227 2.9609-3.8828 4-6.4258 1.043-2.5547 1.5703-5.5234 1.5703-8.8359v-27.797c0-2.6094 0.35547-5.0195 1.0547-7.168 0.69922-2.1445 1.6367-4.0195 2.7852-5.5664 1.1367-1.5312 2.4648-2.7305 3.9453-3.5703 1.4688-0.83203 3.0039-1.2539 4.5625-1.2539h0.41406v-11.273zm-132.7 41.32c5.6562 0 10.242-4.582 10.242-10.238s-4.5859-10.242-10.242-10.242-10.238 4.5859-10.238 10.242 4.582 10.238 10.238 10.238zm40.961 0c5.6562 0 10.238-4.582 10.238-10.238s-4.582-10.242-10.238-10.242-10.238 4.5859-10.238 10.242 4.582 10.238 10.238 10.238zm40.961 0c5.6562 0 10.238-4.582 10.238-10.238s-4.582-10.242-10.238-10.242-10.242 4.5859-10.242 10.242 4.5859 10.238 10.242 10.238zm133.12-199.68h-112.61c-5.668 0-10.266-4.5938-10.266-10.266v-112.61z" fill-rule="evenodd"/>
</svg>
