<?xml version="1.0" encoding="UTF-8"?>
<svg width="512pt" height="512pt" version="1.1" viewBox="0 0 512 512" xmlns="http://www.w3.org/2000/svg">
 <path d="m302.04 163.84c-8.4688 0-15.324-6.8594-15.324-15.32v-128.04h-186.03c-10.363 0-18.766 8.3906-18.766 18.777v423.24c0 10.371 8.4336 18.781 18.84 18.781h310.48c10.406 0 18.84-8.4648 18.84-18.832v-298.61zm-25.562 214.63c0 5.707-3.3984 7.2344-7.5547 3.4531l-36.816-33.531h-47.773c-5.6641 0-10.258-4.6055-10.258-10.266v-61.844c0-5.6719 4.5781-10.27 10.258-10.27h47.77l36.82-33.531c4.1719-3.8008 7.5547-2.2578 7.5547 3.4531v50.781c-11.312 0.31641-20.48 9.5352-20.48 20.48 0 11.805 9.168 21.023 20.48 20.48zm34.121-122.8c16.473 11.02 27.32 29.797 27.32 51.102 0 21.309-10.848 40.082-27.32 51.105l-5.4766-8.6602c13.609-9.2031 22.555-24.777 22.555-42.445 0-17.664-8.9453-33.238-22.555-42.441zm-10.953 17.32c10.746 7.3828 17.793 19.758 17.793 33.781 0 14.023-7.0469 26.402-17.793 33.785l-5.4805-8.6641c7.8828-5.5625 13.031-14.738 13.031-25.121 0-10.379-5.1484-19.559-13.031-25.117zm-23.168 44.445c5.6562 0 10.238-4.5859 10.238-10.242s-4.582-10.238-10.238-10.238-10.242 4.582-10.242 10.238 4.5859 10.242 10.242 10.242zm153.6-174.08h-112.61c-5.668 0-10.266-4.5938-10.266-10.266v-112.61z" fill-rule="evenodd"/>
</svg>
