<?xml version="1.0" encoding="UTF-8"?>
<svg width="512pt" height="512pt" version="1.1" viewBox="0 0 512 512" xmlns="http://www.w3.org/2000/svg">
 <g>
  <path d="m413.85 30.719c-21.629 0.039062-42.262 9.0938-56.934 24.988l-202.85 221.39c-28.855-3.0312-57.637 6.3164-79.203 25.727-21.562 19.406-33.883 47.047-33.898 76.059-0.015626 10.359-3.6367 20.387-10.242 28.367-5.3516 6.7578-8.6758 14.898-9.582 23.473s0.64062 17.23 4.4648 24.961c3.6914 7.7148 9.5039 14.219 16.758 18.754 7.2539 4.5312 15.648 6.9062 24.199 6.8477h76.801c29.016-0.066406 56.641-12.441 76.008-34.047 19.371-21.602 28.664-50.41 25.574-79.262l221.44-202.9c15.379-14.168 24.371-33.949 24.934-54.848 0.5625-20.902-7.3516-41.141-21.941-56.113s-34.613-23.41-55.523-23.391zm-222.62 386.41c-11.574 14.641-29.207 23.184-47.871 23.195h-76.801c-1.7539 0.10547-3.3906-0.89844-4.0938-2.5078-0.81641-1.6875-0.55469-3.6992 0.66406-5.1211 12.266-15.242 18.902-34.246 18.793-53.812-0.046875-18.73 8.5039-36.449 23.191-48.074 10.754-8.6523 24.141-13.367 37.941-13.363 4.9961 0.011719 9.9727 0.57812 14.848 1.6875 20.344 5.0078 36.738 20.039 43.484 39.875 6.7461 19.84 2.918 41.75-10.156 58.121zm247.45-282.16-208.02 190.57c-8.4453-13.969-20.145-25.688-34.098-34.152l190.51-207.97c6.7344-7.3125 16.156-11.562 26.094-11.77s19.531 3.6445 26.562 10.672c7.0312 7.0234 10.895 16.613 10.699 26.551-0.19922 9.9375-4.4375 19.363-11.746 26.105z"/>
  <path d="m122.88 215.04v-102.4c0-5.4336 2.1602-10.641 6-14.48 3.8398-3.8438 9.0508-6 14.48-6h102.4c7.3164 0 14.074-3.9023 17.734-10.238 3.6602-6.3398 3.6602-14.145 0-20.48-3.6602-6.3398-10.418-10.242-17.734-10.242h-102.4c-16.293 0-31.922 6.4727-43.445 17.996-11.52 11.523-17.992 27.148-17.992 43.445v102.4c0 7.3164 3.9023 14.078 10.238 17.738 6.3359 3.6562 14.145 3.6562 20.48 0 6.3359-3.6602 10.238-10.422 10.238-17.738z"/>
  <path d="m450.56 276.48v102.4c0 5.4336-2.1562 10.641-5.9961 14.484-3.8398 3.8398-9.0508 5.9961-14.484 5.9961h-102.4c-7.3164 0-14.078 3.9023-17.734 10.242-3.6602 6.3359-3.6602 14.141 0 20.477 3.6562 6.3398 10.418 10.242 17.734 10.242h102.4c16.297 0 31.926-6.4727 43.445-17.996 11.523-11.523 17.996-27.148 17.996-43.445v-102.4c0-7.3164-3.9023-14.078-10.238-17.738-6.3359-3.6562-14.145-3.6562-20.48 0-6.3359 3.6602-10.242 10.422-10.242 17.738z"/>
 </g>
</svg>
