<?xml version="1.0" encoding="UTF-8"?>
<svg width="512pt" height="512pt" version="1.1" viewBox="0 0 512 512" xmlns="http://www.w3.org/2000/svg">
 <path d="m25.602 51.199c0-14.137 11.461-25.598 25.598-25.598h317.96c9.5039 0 18.621 3.7734 25.34 10.496l81.406 81.406c6.7227 6.7188 10.496 15.836 10.496 25.34v317.96c0 14.137-11.461 25.598-25.598 25.598h-66.562v-204.8c0-14.141-11.461-25.602-25.598-25.602h-225.28c-14.137 0-25.598 11.461-25.598 25.602v204.8h-66.562c-14.137 0-25.598-11.461-25.598-25.598zm145.92 256c-7.0703 0-12.801 5.7305-12.801 12.801s5.7305 12.801 12.801 12.801h168.96c7.0703 0 12.801-5.7305 12.801-12.801s-5.7305-12.801-12.801-12.801zm-12.801 64c0-7.0703 5.7305-12.801 12.801-12.801h168.96c7.0703 0 12.801 5.7305 12.801 12.801 0 7.0703-5.7305 12.801-12.801 12.801h-168.96c-7.0703 0-12.801-5.7305-12.801-12.801zm12.801 38.402c-7.0703 0-12.801 5.7305-12.801 12.797 0 7.0703 5.7305 12.801 12.801 12.801h168.96c7.0703 0 12.801-5.7305 12.801-12.801 0-7.0664-5.7305-12.797-12.801-12.797z" fill-rule="evenodd"/>
</svg>
