<?xml version="1.0" encoding="UTF-8"?>
<svg width="512pt" height="512pt" version="1.1" viewBox="0 0 512 512" xmlns="http://www.w3.org/2000/svg">
 <path d="m484.93 27.07c-4.9258-4.9219-12.258-6.5547-18.805-4.1641l-432.52 157.6c-7.082 2.582-11.793 9.3086-11.785 16.844 0.003906 7.5352 4.7266 14.266 11.809 16.836l175.51 63.688 74.293-74.285c5.9961-6 15.719-6 21.719 0s6 15.719 0 21.719l-72.758 72.766 65.43 180.3c2.5703 7.082 9.2969 11.801 16.836 11.809h0.011718c7.5312 0 14.258-4.7109 16.836-11.785l157.59-432.52c2.3867-6.543 0.76172-13.879-4.1641-18.805z"/>
</svg>
