<?xml version="1.0" encoding="UTF-8"?>
<svg width="512pt" height="512pt" version="1.1" viewBox="0 0 512 512" xmlns="http://www.w3.org/2000/svg">
 <path d="m364.78 512h-217.56c-17.785 0-34.703-19.945-37.777-44.559l-39.688-333.88h372.49l-39.688 333.88c-3.0703 24.609-19.988 44.559-37.777 44.559zm-120.02-61.219c0 6.1484 5.0273 11.133 11.234 11.133s11.234-4.9844 11.234-11.133v-256c0-6.1445-5.0273-11.129-11.234-11.129s-11.234 4.9844-11.234 11.129zm79.031-2.3086c-0.75391 6.1016 3.625 11.652 9.7812 12.402 6.1602 0.75 11.766-3.5898 12.523-9.6914l31.492-254.09c0.75781-6.1016-3.6211-11.656-9.7812-12.406-6.1602-0.74609-11.766 3.5898-12.523 9.6914zm-157.9 2.7109c0.75781 6.1016 6.3633 10.441 12.523 9.6914 6.1562-0.75 10.535-6.3008 9.7812-12.402l-31.492-254.09c-0.75781-6.1016-6.3633-10.438-12.523-9.6914-6.1602 0.75-10.539 6.3047-9.7812 12.406zm-20.848-384.4h-91.32c-12.426 0-22.441 9.9688-22.441 22.262 0 12.27 10.047 22.262 22.441 22.262h404.54c12.426 0 22.441-9.9688 22.441-22.262 0-12.27-10.047-22.262-22.441-22.262h-91.32v-22.309c0-24.59-20.148-44.473-44.973-44.473h-131.95c-24.863 0-44.973 19.883-44.973 44.473zm44.941 0h132.02c0-7.7227-0.003907-22.258-0.035157-22.258 0 0-131.98-0.03125-131.98-0.050782z" fill-rule="evenodd"/>
</svg>
