<svg width="28" height="26" viewBox="0 0 28 26" fill="none" xmlns="http://www.w3.org/2000/svg">
<g clip-path="url(#clip0_29_90)">
<path fill-rule="evenodd" clip-rule="evenodd" d="M27.8469 12.272H17.6589L21.2509 8.68C19.7169 5.855 16.7339 3.934 13.2929 3.934C8.28585 3.934 4.22785 7.993 4.22785 12.999C4.22785 18.6 8.28585 22.65 13.2929 22.65C17.9499 22.65 20.3449 19.722 21.6919 16.403C22.7769 17.145 23.8889 17.906 24.9789 18.655C22.8739 22.994 18.4399 25.994 13.2929 25.994C6.11585 25.994 0.297852 20.176 0.297852 12.999C0.297852 5.823 6.11585 0.5 13.2929 0.5C17.8139 0.5 21.7819 2.321 24.1059 5.825L27.8469 2.84V12.272Z" fill="white"/>
</g>
<defs>
<clipPath id="clip0_29_90">
<rect width="28" height="26" fill="white"/>
</clipPath>
</defs>
</svg>
